<?xml version="1.0" encoding="UTF-8"?><svg id="a" xmlns="http://www.w3.org/2000/svg" viewBox="0 0 1818 1818"><circle cx="909" cy="909" r="909" style="fill:none; stroke-width:0px;"/><path d="m1732.69,834.91l-65.91-132.93c-.69-1.38-1.11-2.88-1.25-4.42l-13.64-147.87c-.29-3.11-1.72-6-4.02-8.11l-109.25-100.03c-1.14-1.05-2.08-2.3-2.77-3.68l-65.91-132.92c-1.39-2.8-3.78-4.99-6.7-6.12l-137.84-53.63c-1.45-.56-2.78-1.39-3.93-2.44l-109.24-100.02c-2.32-2.12-5.34-3.3-8.48-3.3h-147.8c-1.56,0-3.1-.29-4.55-.85l-137.84-53.63c-2.93-1.14-6.18-1.14-9.11,0l-137.84,53.62c-1.45.56-3,.85-4.55.85h-147.8c-3.14,0-6.16,1.18-8.48,3.3l-109.25,100.02c-1.15,1.05-2.48,1.88-3.93,2.44l-137.84,53.63c-2.92,1.14-5.31,3.32-6.7,6.12l-65.9,132.92c-.69,1.39-1.63,2.64-2.77,3.68l-109.26,100.03c-2.3,2.11-3.74,5-4.02,8.11l-13.65,147.87c-.14,1.54-.57,3.04-1.25,4.42l-65.9,132.92c-1.38,2.79-1.68,6-.83,9l40.47,142.84c.42,1.49.56,3.04.42,4.58l-13.64,147.86c-.29,3.11.59,6.21,2.47,8.7l89.1,118.5c.93,1.24,1.62,2.63,2.05,4.12l40.46,142.83c.85,3.01,2.8,5.59,5.45,7.24l125.69,78.15c1.32.82,2.47,1.88,3.41,3.12l89.09,118.49c1.88,2.51,4.64,4.22,7.72,4.79l145.3,27.28c1.53.29,2.99.86,4.31,1.68l125.67,78.15c2.67,1.66,5.86,2.26,8.95,1.68l145.29-27.28c1.53-.29,3.1-.29,4.63,0l145.29,27.28c3.09.58,6.28-.02,8.95-1.68l125.68-78.15c1.32-.82,2.78-1.39,4.31-1.68l145.3-27.27c3.08-.58,5.84-2.29,7.72-4.79l89.09-118.48c.93-1.24,2.09-2.3,3.41-3.12l125.69-78.16c2.65-1.65,4.6-4.23,5.45-7.24l40.47-142.83c.42-1.49,1.12-2.89,2.04-4.12l89.1-118.49c1.87-2.49,2.75-5.59,2.47-8.7l-13.64-147.86c-.14-1.54,0-3.09.42-4.58l40.47-142.84c.85-3,.55-6.21-.83-9ZM183.32,981.36l-37.33-131.77c-.85-3-.55-6.21.83-9l60.8-122.62c.69-1.38,1.11-2.88,1.25-4.42l12.59-136.38c.29-3.11,1.72-6,4.02-8.11l100.77-92.26c1.14-1.05,2.08-2.3,2.77-3.68l60.76-122.55c1.39-2.8,3.78-4.99,6.7-6.12l127.08-49.44c1.45-.56,2.78-1.39,3.93-2.44l100.69-92.18c2.32-2.12,5.34-3.3,8.48-3.3h136.22c1.56,0,3.1-.29,4.55-.85l127.02-49.42c2.93-1.14,6.18-1.14,9.11,0l127.02,49.42c1.45.56,3,.85,4.55.85h136.22c3.14,0,6.16,1.17,8.48,3.29l100.68,92.18c1.15,1.05,2.48,1.88,3.93,2.44l127.09,49.45c2.92,1.14,5.31,3.32,6.7,6.12l60.76,122.55c.69,1.39,1.63,2.64,2.77,3.68l100.77,92.25c2.3,2.11,3.74,5,4.02,8.11l12.58,136.38c.14,1.54.57,3.04,1.25,4.42l60.8,122.62c1.38,2.79,1.68,6,.83,9l-37.33,131.76c-.42,1.49-.56,3.04-.42,4.58l12.59,136.4c.29,3.11-.59,6.21-2.47,8.7l-82.19,109.3c-.93,1.24-1.62,2.63-2.04,4.12l-37.31,131.71c-.85,3.01-2.8,5.59-5.45,7.24l-115.9,72.07c-1.32.82-2.47,1.88-3.41,3.12l-82.13,109.22c-1.88,2.51-4.64,4.22-7.72,4.79l-133.93,25.14h0c-1.53.29-3,.86-4.32,1.68l-115.82,72.02c-2.67,1.66-5.86,2.26-8.95,1.68l-133.89-25.14c-1.53-.29-3.1-.29-4.63,0l-133.89,25.14c-3.09.58-6.28-.02-8.95-1.68l-115.82-72.02c-1.32-.82-2.78-1.39-4.31-1.68l-133.94-25.14c-3.08-.58-5.83-2.29-7.72-4.79l-82.13-109.22c-.93-1.24-2.09-2.3-3.41-3.12l-115.9-72.07c-2.65-1.65-4.6-4.23-5.45-7.24l-37.31-131.7c-.42-1.49-1.12-2.89-2.05-4.12l-82.19-109.31c-1.87-2.49-2.75-5.59-2.47-8.7l12.58-136.4c.14-1.54,0-3.09-.42-4.58Z" style="fill:#3B73B9; stroke-width:0px;"/><path d="m326.57,802.27l-5.34-1.89c3.55-8.47,6.32-15.53,8.3-21.13,2.11-5.98,4.16-12.56,6.15-19.76,6.2-.09,13.66-.43,22.35-1.03,23.4-1.79,43.4-3.65,59.96-5.52l-32.93-32.12c-5.38-5.15-9.83-9.31-13.35-12.47-3.52-3.16-8.14-7.1-13.78-11.82,3.74-9.02,6.35-15.63,7.82-19.78,1.27-3.58,3.31-10.17,6.14-19.73l5.34,1.89c-.22,1.56-.43,2.71-.59,3.49-1.15,6.63-1.47,10.6-.93,11.9.51,1.29,2.07,2.57,4.71,3.81,2.62,1.23,13.53,5.22,32.67,11.99,24.31,8.59,37,13.04,38.08,13.37,3.88,1.2,6.3,1.75,7.31,1.64,1.04-.11,1.84-.41,2.45-.88,1.57-1.37,3.71-4.61,6.45-9.76l1.83-3.05,5.41,1.91c-4.63,11.54-8.03,20.37-10.21,26.52-2.23,6.32-5.3,15.77-9.18,28.33l-5.34-1.89c1.29-8.13,1.92-12.75,1.83-13.83-.09-1.09-.38-2-.88-2.7-.49-.73-1.29-1.37-2.39-1.96-1.1-.58-6.04-2.41-14.76-5.49-18.97-6.81-33.77-12.1-44.45-15.87-1.01-.36-4.19-1.45-9.51-3.28,4.58,4.59,22.62,21.8,54.14,51.68l13.58,13-2.03,5.76c-14.25,1.08-45.59,3.79-94,8.11,6.29,2.33,11.63,4.28,16.03,5.83,24.09,8.51,40.11,13.92,48.05,16.23,4.53,1.32,7.09,1.95,7.72,1.9,1.03,0,2.02-.45,3.01-1.36.96-.91,2.86-3.91,5.71-8.99.37-.65.92-1.57,1.62-2.76l5.34,1.89c-2.92,6.69-5.5,13.2-7.75,19.58-2.27,6.42-4.62,13.85-7.02,22.23l-5.34-1.89c1.11-6.69,1.68-10.8,1.66-12.34.01-1.52-.45-2.83-1.31-3.91-.85-1.05-2.81-2.13-5.87-3.21l-45.74-17.16c-7.98-3.04-13.95-5.26-17.86-6.64-6.03-2.13-10.12-3.21-12.22-3.26-1.3-.01-2.43.42-3.38,1.31-.99.9-2.9,4.2-5.77,9.88-.38.76-.95,1.83-1.73,3.25h0Zm186.1-167.54c5.6-10.07,10.4-18.34,14.42-24.85,4.07-6.6,8.71-13.62,13.91-21.04l-4.82-2.97c-4.41,4.21-7.21,6.6-8.4,7.17-1.18.56-2.82.88-4.89.89-3.01.08-14.44-1.15-34.37-3.69-35.84-4.54-60.15-7.96-72.9-10.22l-3.22,5.22c16.84,24.1,29.47,42.46,37.9,55.05,13.33,19.87,20.83,31.52,22.53,34.9.9,1.69,1.38,3.25,1.45,4.68.14,2.12-.59,5.4-2.19,9.83l4.82,2.97c2.99-5.85,6.17-11.49,9.5-16.89,3.1-5.02,6.57-10.14,10.4-15.35l-4.82-2.97c-4.43,4.84-7.11,7.43-8.03,7.82-.94.37-1.92.26-2.97-.38-1.09-.67-5.84-7-14.24-18.95,4.72-7.84,8.1-13.42,10.16-16.76,2.5-4.06,5.69-9.12,9.55-15.17,11.5,1.83,18.37,2.96,20.64,3.38.95.25,1.73.54,2.33.91,1.07.66,1.63,1.59,1.73,2.79.12,1.21-1,4.77-3.32,10.67l4.82,2.97h0Zm-74.09-28.6l38.58,6.2c-3.52,5.71-6.22,10.08-8.11,13.14l-7.87,12.75-22.6-32.08h0Zm47.43-102.3l-3.86-4.14c9.44-8.09,16.9-14.69,22.34-19.77,5.63-5.25,12.26-11.79,19.85-19.59l3.86,4.14-6.66,9.22c-1.04,1.61-1.62,2.8-1.72,3.61-.11.57-.02,1.17.24,1.75.55,1.39,2.08,3.54,4.67,6.43,2.59,2.89,9.67,10.51,21.23,22.91l8.51,9.12c7.87,8.43,12.68,13.97,14.48,16.63,3.09,4.57,4.9,9.33,5.5,14.23.61,4.92-.16,9.89-2.28,14.96-2.12,5.06-5.42,9.68-9.86,13.82-3.73,3.49-8.82,6.8-15.21,9.89-3.76-5.92-9.8-13.54-18.12-22.88l5.63-5.26c7.51,6.93,13.14,10.75,16.87,11.47,2.8.62,5.23-.04,7.28-1.95,2.57-2.4,2.75-5.5.56-9.34-1.52-2.67-11.92-14.36-31.29-35.11-14.91-15.98-23.1-24.61-24.58-25.84-1.49-1.26-2.77-1.82-3.85-1.71-1.6.13-6.12,2.63-13.59,7.41h0Zm53.73-50.84c6.37-3.13,10.42-4.83,12.18-5.09,1.75-.28,3.23-.02,4.44.77,1.21.79,3.38,3.43,6.48,7.95l6.7,9.2,13.91,20.26,16.96,25.26,1.47,2.14c2.7,3.93,3.68,6.85,2.97,8.77-.47,1.44-3.75,5.18-9.83,11.23l3.2,4.67c12.49-9.21,22.31-16.26,29.46-21.17,15.71-10.78,30.89-20.89,45.6-30.35-3.9-11.75-7.02-21.94-9.36-30.57l-5.6,3.84c.76,8.56.82,15.14.19,19.77-.27,2.25-.93,4.16-2.05,5.73-.69.98-2.43,2.43-5.24,4.36l-25.3,17.37-24.29-35.39,12.49-8.57c5.55-3.81,9.24-5.61,11.04-5.35,1.8.26,5.61,3.36,11.47,9.35l5.31-3.65c-5.07-6.47-9.16-11.95-12.26-16.47-3.25-4.73-6.78-10.35-10.61-16.84l-5.31,3.65c2.91,7.44,4.09,12.16,3.51,14.18-.57,2.04-3.75,5.05-9.52,9.01l-11.17,7.48c-9.21-13.61-16.11-24.07-20.69-31.38l24.37-16.73c4.17-2.86,7.15-4.21,9.03-4.07,1.86.16,5.88,2.54,12.11,7.13.71.56,1.79,1.35,3.2,2.35l5.42-3.72c-5.47-5.84-11.32-13.15-17.53-21.91-14.39,10.52-28.51,20.52-42.36,30.03-11.93,8.19-23.14,15.56-33.61,22.12l3.2,4.67h0Zm105.39-68.63l-2.2-5.22c12.25-4.6,21.75-8.32,28.48-11.16,6.86-2.89,15.91-6.99,27.15-12.3l2.2,5.21c-9.09,5.57-13.98,8.74-14.65,9.5-1.09,1.4-.92,3.75.47,7.05l7.38,18.3,24.83,58.89,25.86-10.9c4.27-1.8,6.98-3.28,8.17-4.44,1.62-1.62,2.87-3.85,3.82-6.67.91-2.83,2.07-8.98,3.44-18.43l6.4-2.7c.51,10.05,1.45,20.91,2.82,32.59-20.27,7.98-37.06,14.77-50.36,20.38-10.89,4.59-22.11,9.61-33.67,15.05l-2.2-5.22c7.64-5.15,11.75-8.22,12.33-9.21.57-.95.62-2.31.12-4.09-.48-1.76-5.16-13.12-14-34.08l-10.86-25.76-1.9-4.52c-3.19-7.56-5.37-11.98-6.51-13.27-.86-.97-1.83-1.5-2.93-1.55-1.11-.07-5.84.78-14.19,2.51h0Zm170.24-60.93c-11.42,3.17-20.53,5.55-27.37,7.13-6.38,1.47-16.07,3.44-29.01,5.89l1.27,5.52c1.47-.04,2.59-.09,3.36-.13,6.84-.42,10.98-.19,12.4.69,1.41.88,2.57,3.33,3.49,7.31l.52,2.25,6.76,27.16c4.6,19.92,7.75,34.06,9.46,42.38.77,3.56.93,6,.43,7.32-.39.98-1.11,1.84-2.16,2.54-.67.48-4.71,2.32-12.14,5.57l1.27,5.51c12.04-3.32,21.73-5.82,29.08-7.52,7.76-1.79,16.81-3.61,27.14-5.46l-1.27-5.52c-1.27.08-2.23.14-2.86.18-5.72.38-9.61.31-11.62-.22-1.14-.3-2.08-.97-2.74-1.98-.69-1-1.51-3.63-2.5-7.92l-3.52-14.55-6.77-28.61-5.47-25.12-.62-2.68c-.8-3.45-.67-5.92.36-7.43,1.03-1.5,4.75-3.41,11.13-5.72l2.65-1.09-1.27-5.51h0Zm96.47,23.17l-7.68.58c-2.41-9.62-5.47-15.99-9.14-19.05-3.68-3.06-8.43-4.38-14.31-3.94-5.25.4-9.23,2.06-11.97,5.03-2.72,2.94-3.92,6.55-3.6,10.78.28,3.76,1.9,7.08,4.82,9.94,2.95,2.9,9.68,6.29,20.16,10.12,10.48,3.81,17.96,8.13,22.37,12.92,4.41,4.87,6.91,11.09,7.48,18.7.69,9.17-2.15,17.48-8.55,24.93-6.38,7.45-17.27,11.74-32.69,12.91-5.51.42-10.75.39-15.69-.05-3.78-.27-8.47-1.09-14.11-2.45.21-9.03-.02-17.92-.68-26.62l-.39-5.12,7.68-.58c2.67,9.99,5.56,16.58,8.67,19.79,4.11,4.34,9.54,6.27,16.28,5.76,5.33-.4,9.52-2.35,12.49-5.81,3-3.46,4.31-7.71,3.93-12.7-.24-3.16-1.13-5.93-2.65-8.29-1.55-2.35-3.73-4.42-6.54-6.21-2.82-1.78-7.85-4.06-15.13-6.79-11.15-4.31-18.74-8.7-22.76-13.18-4.01-4.43-6.26-9.83-6.74-16.2-.71-9.41,2.18-17.46,8.63-24.17,6.48-6.72,16.26-10.56,29.32-11.55,8.67-.66,18.21.28,28.62,2.83.4,8.04.71,13.61.95,16.72.28,3.63.67,7.54,1.2,11.71h0Zm219.15,47.22l-6.72-2.37c.27-11.38.29-17.88,0-19.51-.26-1.62-.96-2.95-2.12-3.97-1.16-1.05-5.34-2.83-12.58-5.39l-7.02-2.48-23.9,67.62c-2.97,8.4-4.46,13.57-4.51,15.52-.03,1.02.4,2.01,1.35,2.95.91.96,4.93,3.44,12.01,7.47l-1.89,5.34c-14.53-5.69-23.88-9.27-28.05-10.75-5.68-2.01-14.47-4.83-26.35-8.48l1.89-5.34c8.21,1.37,13.19,1.94,14.89,1.68,1.15-.18,2.13-.83,2.94-1.94.81-1.11,2.76-6.08,5.9-14.98l23.64-66.91-12.18-4.3c-4.1-1.45-6.94-2.06-8.51-1.87-1.55.23-3.09,1.05-4.59,2.54-2.27,2.25-6.02,7.04-11.28,14.38l-6.6-2.33c3.35-6.82,5.6-11.53,6.76-14.18,1.16-2.65,3.24-7.83,6.25-15.58,18.92,7.24,37.51,14.03,55.77,20.4,15.47,5.3,26.64,9.02,33.48,11.13-3.25,9.36-6.11,19.8-8.57,31.32h0Zm33.2,104.7c10.27,5.2,18.73,9.68,25.39,13.45,6.75,3.82,13.95,8.18,21.56,13.09l2.79-4.93c-4.37-4.25-6.87-6.96-7.48-8.11-.61-1.16-.98-2.78-1.08-4.85-.2-3,.6-14.47,2.37-34.49,3.16-35.99,5.65-60.41,7.42-73.23l-5.34-3.02c-23.44,17.76-41.29,31.08-53.55,39.98-19.34,14.08-30.69,22.02-34.01,23.85-1.66.96-3.2,1.5-4.62,1.63-2.11.22-5.42-.38-9.91-1.81l-2.79,4.93c5.96,2.77,11.73,5.72,17.25,8.85,5.13,2.9,10.39,6.17,15.74,9.8l2.79-4.93c-5.01-4.24-7.7-6.82-8.13-7.72-.41-.93-.34-1.91.27-2.98.63-1.12,6.77-6.11,18.39-14.95,8.01,4.41,13.72,7.58,17.14,9.51,4.15,2.35,9.33,5.33,15.53,8.96-1.39,11.56-2.26,18.47-2.58,20.76-.21.96-.48,1.75-.82,2.36-.62,1.09-1.53,1.69-2.72,1.83-1.2.16-4.81-.82-10.79-2.91l-2.79,4.93h0Zm25.73-75.13l-4.71,38.79c-5.84-3.3-10.31-5.83-13.44-7.6l-13.05-7.38,31.19-23.82h0Zm83.11,43.49l.21-5.27c1.52-.29,3.92-.75,7.18-1.33,5.02-.91,10-1.96,14.91-3.14,2.74,4.17,3.99,8.6,3.73,13.24-.26,4.65-1.93,8.77-5.03,12.39-3.84,4.48-9.54,8.11-17.09,10.89-7.55,2.78-16.79,4.29-27.7,4.53l-.56-7.93c9.17-2.08,15.72-3.96,19.65-5.66,2.59-1.17,4.82-2.84,6.73-5.07,1.75-2.05,2.62-4.14,2.6-6.26-.01-2.12-.7-3.74-2.05-4.9-.54-.46-1.39-.95-2.59-1.49h0Zm49.72,24.61c4.36,7.32,6.71,11.51,7.01,12.59.31,1.06.13,2.14-.51,3.27-.84,1.5-4.31,5-10.42,10.48l-3.65,3.27-20.8,18.68c-16.93,15.2-26.14,23.33-27.64,24.36-1.52,1.05-2.82,1.44-3.91,1.22-1.12-.23-5.36-3.11-12.73-8.64l-4.21,3.78c8.92,9.14,17.32,18.11,25.22,26.91,9.65,10.74,21.55,24.39,35.71,40.94,10.59-5.11,20.56-9.55,29.89-13.31l-4.64-5.17c-9.37,1.8-15.57,2.71-18.54,2.77-2.97.03-5.49-.43-7.55-1.43-1.48-.75-3.76-2.82-6.86-6.27l-18.75-20.88,47.56-42.7,14.89-12.95c2.67-2.4,4.84-3.32,6.51-2.75.94.38,5.54,3.97,13.77,10.74l4.21-3.78c-8.69-8.89-15.52-16.11-20.49-21.65-4.88-5.44-11.5-13.2-19.85-23.28l-4.21,3.78h0Zm114.12,147.88l-4.96,2.72-1.77-2.26c-3.95-5.52-6.79-8.59-8.52-9.17-1.72-.58-4.14-.03-7.24,1.67l-2.41,1.32-22.7,12.07-25.71,14.26-13.05,7.33c-3.86,2.11-6.17,3.62-6.95,4.55-.79.91-1.18,1.99-1.16,3.17.03,2.08,1.02,5.84,2.93,11.24.21.6.53,1.5.95,2.71l-4.97,2.72c-4.57-9.44-8.78-17.66-12.6-24.65-3.63-6.62-8.66-15.27-15.11-25.96l4.96-2.72c5.14,6.27,8.01,9.66,8.65,10.17.96.82,1.98,1.28,3.03,1.39,1.41.12,3.72-.69,6.94-2.39,7.55-3.9,20.31-10.76,38.24-20.58l24.32-13.86,2.02-1.11c3.58-1.96,5.63-3.74,6.1-5.34.47-1.6-.43-5.65-2.69-12.12-.25-.73-.59-1.8-1.04-3.2l4.97-2.72c5.86,11.79,10.37,20.58,13.52,26.33,3.37,6.16,8.12,14.28,14.27,24.42h0Zm11.61,22.13c.2,1.61.36,2.82.5,3.65,1,6.29,1.38,10.08,1.11,11.39-.25,1.28-.91,2.29-1.98,3.04-1.73,1.19-5.68,2.71-11.81,4.51-3.97,1.17-10.11,2.86-18.37,5.07l-47.13,12.86c-3.12.92-5.33,1.18-6.64.83-1.34-.37-2.47-1.16-3.35-2.4-.91-1.24-2.86-4.9-5.87-10.98l-5.43,1.6c2.95,8.2,5.4,15.59,7.32,22.13,1.9,6.49,3.63,13.27,5.17,20.41l5.43-1.59c-.13-1.38-.23-2.45-.31-3.19-.66-5.79-.88-9.33-.64-10.63.27-1.31.81-2.26,1.64-2.86.48-.41,2.92-1.4,7.37-2.98,7.79-2.78,23.94-7.77,48.45-14.97,4.47-1.31,9.95-2.87,16.41-4.66-36.72,31.84-60.54,52.38-71.46,61.6l1.72,5.86,18.62,2.59c43.04,5.77,67.75,9.16,74.15,10.21-5.39,1.64-8.6,2.61-9.63,2.91-10.86,3.19-25.96,7.57-45.33,13.15-8.88,2.61-13.95,4.02-15.19,4.19-1.23.17-2.26.12-3.09-.19-.82-.28-1.59-.84-2.29-1.68-.71-.83-2.9-4.94-6.61-12.29l-5.43,1.6c4.2,12.45,7.25,21.9,9.14,28.34,1.84,6.26,4.25,15.41,7.25,27.48l5.51-1.62-.3-3.54c-.79-5.77-.95-9.66-.48-11.68.22-.75.69-1.46,1.47-2.15.75-.69,3.04-1.66,6.89-2.95,1.07-.37,13.96-4.18,38.7-11.45,19.49-5.72,30.66-8.87,33.51-9.41,2.87-.54,4.87-.42,6.05.33,1.2.74,3.27,4.15,6.22,10.19.32.73.82,1.78,1.56,3.17l5.43-1.6c-3.31-9.41-5.5-15.94-6.57-19.59-1.24-4.22-2.99-11.11-5.23-20.61-7.34-.52-13.38-1.01-18.09-1.52-4.71-.5-10.75-1.27-18.13-2.3l-45.5-6.77c12.33-11.21,27.46-24.42,45.38-39.57,6.69-5.57,12.54-10.21,17.52-13.91-2.6-6.99-4.79-13.53-6.58-19.62-1.68-5.71-3.56-13.05-5.64-21.99l-5.43,1.59Z" style="fill-rule:evenodd; stroke-width:0px;"/><path d="m762.51,618.6c2.41,3.43,4.64,7.29,6.71,11.56,2.1,4.27,3.96,8.78,5.61,13.52,1.68,4.74,3.15,9.64,4.43,14.7,1.28,5.08,2.36,10.11,3.25,15.17.89,5.03,1.6,9.98,2.07,14.86.5,4.87.76,9.43.81,13.76l-4.61,9.51c-2.91-13.91-6.47-26.86-10.67-38.81-4.19-11.98-9.09-23.09-14.65-33.38l7.05-20.88h0Zm74.4,34.85c.05-2.36.47-4.82,1.26-7.42.79-2.57,1.86-5.14,3.22-7.68,1.36-2.52,2.96-4.98,4.79-7.39,1.86-2.41,3.85-4.64,6.03-6.68,2.18-2.04,4.48-3.85,6.87-5.37,2.41-1.55,4.87-2.7,7.39-3.46-.42,2.62-.81,5.08-1.2,7.44-.37,2.36-.73,4.8-1.02,7.28-1.08.37-2.41,1.02-3.96,1.94-1.57.92-3.09,1.97-4.59,3.14-1.47,1.18-2.72,2.38-3.8,3.64-1.05,1.26-1.57,2.33-1.57,3.25,0,.79.66,1.76,1.97,2.94,1.31,1.18,2.88,2.44,4.77,3.8,1.86,1.34,3.8,2.75,5.79,4.22,1.99,1.47,3.7,2.86,5.06,4.19-3.22,4.35-5.95,8.04-8.18,11.08-2.23,3.04-4.06,5.66-5.53,7.84-1.44,2.17-2.54,3.98-3.3,5.45-.73,1.44-1.26,2.8-1.57,4.01,1.76,1.18,3.8,2.23,6.16,3.17,2.36.92,4.82,1.76,7.39,2.57,2.6.79,5.21,1.52,7.89,2.23,2.65.68,5.19,1.39,7.6,2.1-1.02,3.17-1.99,6.16-2.94,8.91-.92,2.75-1.86,5.69-2.83,8.75-7.1-1.94-13.84-3.9-20.2-5.87-6.34-1.97-12-4.38-17.03-7.18-.26-.26-.21-1.07.16-2.46.37-1.39.94-3.09,1.73-5.14.79-2.04,1.75-4.3,2.88-6.76,1.13-2.46,2.36-4.87,3.72-7.26,1.36-2.36,2.78-4.59,4.24-6.66,1.49-2.1,2.96-3.77,4.38-5.03-1.21-1.44-2.52-2.67-3.9-3.75-1.39-1.05-2.75-2.04-4.14-3.01-1.39-.97-2.73-1.99-4.01-3.04-1.26-1.05-2.44-2.31-3.51-3.8h0Zm133.05-.31c-.97,0-2.49-.24-4.51-.76-2.02-.52-4.09-1.1-6.18-1.76-2.44-.79-5.06-1.65-7.81-2.62-.97.86-2.2,1.78-3.69,2.72-1.49.94-3.09,1.91-4.8,2.88-1.73.97-3.46,1.94-5.27,2.88-1.78.94-3.51,1.83-5.14,2.65l12.97,47.67c-.47.31-1.05.81-1.76,1.47-.73.66-1.49,1.36-2.28,2.07-.79.71-1.55,1.39-2.25,1.99-.73.63-1.29,1.07-1.7,1.39-4.69-13.15-9.36-26.02-13.91-38.63-4.59-12.58-9.2-25.47-13.86-38.62.16-.34.55-1.07,1.23-2.17.66-1.1,1.41-2.31,2.31-3.64.86-1.34,1.76-2.7,2.73-4.06.94-1.39,1.75-2.57,2.49-3.54,1.13,1.52,2.28,3.14,3.46,4.82,1.15,1.7,2.41,3.22,3.75,4.61,1.34,1.39,2.75,2.54,4.22,3.46,1.49.92,3.07,1.39,4.77,1.39,2.41,0,4.69-.68,6.87-2.04,2.18-1.36,4.22-3.01,6.16-4.95,1.91-1.94,3.67-4.01,5.29-6.18,1.6-2.17,3.04-4.09,4.32-5.71.47.76.86,1.68,1.2,2.73.31,1.05.6,2.04.84,2.99.24.94.42,1.81.58,2.54.16.73.29,1.18.37,1.34.47.81,1.23,1.55,2.31,2.15,1.07.63,2.31,1.15,3.7,1.57,1.39.45,2.83.76,4.35.97,1.49.21,2.88.31,4.17.31l7.36-11.37,1.78,4.38-14.05,27.1h0Zm86.9,60.43c-3.01-1.55-5.53-3.77-7.52-6.76-1.99-2.96-3.59-6.37-4.77-10.19-1.18-3.85-1.99-7.99-2.46-12.42-.45-4.46-.68-8.94-.66-13.44.03-4.51.26-8.88.66-13.13.42-4.24.92-8.1,1.47-11.58-6.13-.71-12.53-1.44-19.15-2.23-6.63-.76-13.02-1.49-19.24-2.23.68-3.17,1.28-6.13,1.83-8.94.58-2.78,1.15-5.74,1.78-8.86,7.21,1.02,14.2,1.99,20.99,2.88,6.79.89,13.76,1.83,20.94,2.8-.89,4.3-1.52,8.65-1.89,13.08-.39,4.43-.52,8.75-.39,13,.13,4.24.52,8.33,1.15,12.29.63,3.93,1.55,7.6,2.73,10.95,1.18,3.38,2.62,6.39,4.3,9.04,1.7,2.62,3.67,4.74,5.92,6.32l-5.69,19.42Z" style="fill:#3B73B9; fill-rule:evenodd; stroke-width:0px;"/><path d="m803.99,1148.34c0,4.82-.66,9.12-1.97,12.94-1.29,3.83-3.09,7.13-5.4,9.91-2.31,2.78-5.03,5.08-8.23,6.92-3.17,1.81-6.6,3.12-10.35,3.96,1.68,4.24,3.17,8.73,4.4,13.42,1.26,4.72,2.31,9.35,3.17,13.94.84,4.59,1.47,8.94,1.86,13.05.42,4.14.63,7.68.63,10.64l-3.46,6.84c-4.56-13.65-9.7-27.2-15.38-40.64-5.71-13.47-11.92-27.04-18.63-40.75.05-.29.37-1,.92-2.07.58-1.07,1.26-2.25,2.04-3.59.79-1.34,1.63-2.7,2.49-4.06.86-1.39,1.68-2.57,2.38-3.54,1.94,2.46,3.88,4.66,5.84,6.63,1.94,1.99,3.85,3.69,5.74,5.11,1.91,1.44,3.77,2.54,5.61,3.3,1.83.76,3.7,1.15,5.53,1.15,3.28,0,6.39-1.34,9.33-4.04,2.94-2.67,5.74-7.1,8.41-13.26l5.06,4.14h0Zm72.93,41.19c-1.18,4.01-2.28,7.84-3.33,11.53-1.05,3.69-2.15,7.47-3.28,11.37-1.62-1.02-3.2-1.99-4.72-2.88-1.52-.89-2.99-1.78-4.45-2.7-1.47-.89-2.94-1.78-4.4-2.67-1.49-.89-3.09-1.83-4.77-2.8,1.18-4.01,2.31-7.89,3.38-11.69,1.08-3.8,2.18-7.63,3.3-11.53l18.26,11.37h0Zm68.71-44.55c2.41,3.43,4.64,7.29,6.71,11.56,2.1,4.27,3.96,8.78,5.61,13.52,1.68,4.74,3.15,9.64,4.43,14.7,1.28,5.08,2.36,10.11,3.25,15.17.89,5.03,1.6,9.98,2.07,14.86.5,4.87.76,9.43.81,13.76l-4.61,9.51c-2.91-13.91-6.47-26.86-10.67-38.81-4.19-11.98-9.09-23.09-14.65-33.38l7.05-20.89h0Zm88.47,29.4c-1.23,1.07-2.44,2.49-3.64,4.22-1.21,1.75-2.28,3.59-3.22,5.53-.94,1.94-1.7,3.88-2.28,5.77-.55,1.89-.84,3.51-.84,4.82,0,2.62.71,4.77,2.15,6.42,1.44,1.68,3.28,2.94,5.53,3.85,2.25.89,4.77,1.41,7.52,1.57,2.78.13,5.45-.03,8.07-.5,2.59-.5,5-1.28,7.21-2.38,2.2-1.1,3.9-2.44,5.06-3.96-4.3-8.65-8.57-15.02-12.81-19.13-4.25-4.09-8.49-6.16-12.74-6.21h0Zm-19.26,31.37c0-2.15.34-4.9,1.05-8.23.68-3.33,1.65-6.87,2.91-10.64,1.26-3.77,2.75-7.55,4.53-11.32,1.76-3.8,3.7-7.21,5.82-10.27,2.12-3.04,4.4-5.5,6.81-7.42,2.41-1.89,4.87-2.83,7.44-2.83,1.99,0,3.96.63,5.9,1.89,1.97,1.26,3.8,2.88,5.58,4.9,1.76,2.04,3.41,4.3,4.95,6.81,1.52,2.52,2.86,5.03,3.96,7.57,1.1,2.52,1.97,4.93,2.59,7.18.66,2.25.97,4.14.97,5.69,0,1.89-.18,4.09-.55,6.6-.34,2.49-.97,5.11-1.86,7.78-.92,2.7-2.15,5.35-3.72,7.99-1.6,2.65-3.62,5-6.03,7.07-2.44,2.07-5.37,3.75-8.81,5.03-3.43,1.28-7.44,1.91-12.05,1.91-13,0-19.5-6.58-19.5-19.73Z" style="fill:#3B73B9; fill-rule:evenodd; stroke-width:0px;"/><path d="m1340.34,772.88c-15.17-45.6-37.34-88.26-65.88-126.8-27.9-37.67-61.37-70.71-99.47-98.19-38.12-27.49-80.05-48.83-124.63-63.43-45.63-14.94-93.19-22.51-141.35-22.51s-95.72,7.58-141.35,22.51c-44.58,14.59-86.51,35.94-124.63,63.43-38.1,27.48-71.57,60.52-99.47,98.19-28.54,38.53-50.71,81.19-65.88,126.8h0c-6.72,20.19,8.31,41.02,29.58,41.02h803.51c21.27,0,36.3-20.84,29.58-41.02h0Zm-431.34-267.89c172.01,0,324.66,106.17,384.95,265.86h-769.91c60.3-159.7,212.95-265.86,384.95-265.86Z" style="fill:#3B73B9; stroke-width:0px;"/><path d="m483.31,1075.95c32.61,86.97,90.22,160.94,166.61,213.92,76.46,53.03,166.05,81.05,259.08,81.05s182.62-28.03,259.08-81.05c76.39-52.97,134-126.94,166.61-213.92h0c7.64-20.38-7.43-42.12-29.19-42.12h-792.99c-21.77,0-36.84,21.74-29.19,42.12h0Zm425.69,251.92c-164.85,0-315-100.17-378.98-251.01h757.96c-63.98,150.84-214.13,251.01-378.98,251.01Z" style="fill:#3B73B9; stroke-width:0px;"/><path d="m416.06,1143.54l-5.39,1.74c-3.36-6.24-5.77-10.12-7.22-11.63-.73-.73-1.76-1.11-3.13-1.17-1.36-.03-5.17.95-11.46,2.98-10.05,3.24-18.87,6.2-26.51,8.88-1.64-3.13-3.53-6.51-5.63-10.19-5.57-9.6-9.37-16.58-11.44-20.95-2.04-4.35-3.91-9.15-5.59-14.36-3.91-12.12-5.48-22.21-4.74-30.24,1-10.04,4.79-18.7,11.33-25.98,6.53-7.25,15.35-12.69,26.47-16.27,19.75-6.37,37.32-3.99,52.69,7.13,10.98,8,19.23,20.53,24.74,37.62,3.7,11.47,6.22,24.92,7.53,40.36-2.93.83-5.26,1.53-7.01,2.09-5.71,1.84-13.74,4.7-24.05,8.58l-2.36-7.33c7.45-4.66,12.39-8.54,14.89-11.63,2.47-3.08,3.95-7.14,4.41-12.1.46-4.97-.31-10.61-2.34-16.92-2.66-8.25-6.55-14.6-11.71-19.05-5.16-4.47-11.76-7.08-19.8-7.85-8.02-.8-16.64.3-25.8,3.25-14.64,4.72-24.6,11.73-29.89,21.04-5.29,9.3-6.13,19.57-2.51,30.82,1.82,5.64,5.06,11.34,9.7,17.08l22.52-7.26c4.91-1.58,8-2.86,9.27-3.79.76-.63,1.24-1.53,1.47-2.7.2-1.17.02-4.55-.6-10.16-.06-.61-.13-1.58-.22-2.9l5.39-1.74c3.12,11.38,5.59,19.89,7.41,25.56,1.34,4.14,4.53,13.19,9.57,27.12h0Zm38.25-24.57c3.06,7.29,4.69,11.54,4.9,12.78.19,1.25.06,2.3-.44,3.18-.7,1.42-3.32,3.65-7.85,6.63-9.22,6.15-20.38,13.46-33.49,21.95l-25.36,15.94c-3.15,2.03-5.34,3.08-6.62,3.13-1.27.07-2.53-.39-3.77-1.34-1.23-.98-4.34-4.06-9.35-9.24l-4.75,3.07c5.32,7.26,10.49,14.78,15.53,22.56,4.91,7.59,10.23,16.29,15.98,26.15l4.75-3.08c-.59-1.4-1.04-2.42-1.35-3.09-2.79-6.09-4.07-9.91-3.84-11.43.23-1.52,1.22-2.94,2.98-4.27,3.31-2.45,13.72-9.38,31.27-20.79,7.55,11.28,11.58,17.32,12.11,18.13l11.21,17.9-28.51,18.26c-3.1,2.01-5.25,3.02-6.47,3.06-1.24.02-2.48-.45-3.72-1.46l-9.15-9.31-4.75,3.07c6.4,8.93,11.86,16.89,16.37,23.86,4.57,7.06,9.56,15.26,14.97,24.59l4.75-3.07-1.24-2.79c-2.81-6.33-4.09-10.28-3.8-11.86.27-1.61,1.56-3.19,3.81-4.77,6.8-4.78,17.57-11.93,32.26-21.43,3.61-2.33,11.38-7.3,23.3-14.88,7.54-4.75,12.18-7.38,13.87-7.85.79-.23,1.54-.22,2.27-.06.72.19,1.6.74,2.61,1.68l8.91,8.94,4.75-3.07c-7.3-10.32-13.07-18.76-17.28-25.27-4.51-6.98-9.22-14.73-14.15-23.31l-4.75,3.08c2.99,6.99,4.62,11.15,4.86,12.43.34,1.68.14,3.06-.58,4.22-.74,1.13-3.13,3.02-7.2,5.66l-22.8,14.93c-3.21-4.57-6.84-9.99-10.9-16.26-4.5-6.95-8.64-13.54-12.42-19.77l16.61-10.65,4.49-2.81c5.24-3.39,8.5-5.19,9.84-5.39,1.32-.23,2.6.07,3.83.9,1.23.8,4.5,4.11,9.84,9.9l4.75-3.07c-5.76-7.94-11.36-16.12-16.79-24.5-5.21-8.05-10.13-16.14-14.73-24.21l-4.75,3.07h0Zm109.66,141.22l-4.25,3.73-2.22-1.82c-5.05-4.53-8.5-6.91-10.3-7.1-1.81-.19-4.05.87-6.71,3.2l-2.07,1.81-19.54,16.71-22,19.5-11.15,9.98c-3.31,2.9-5.24,4.87-5.79,5.95-.57,1.06-.72,2.2-.44,3.35.48,2.02,2.26,5.48,5.3,10.34.34.54.84,1.36,1.51,2.44l-4.26,3.73c-6.52-8.23-12.4-15.33-17.66-21.32-4.98-5.67-11.77-13.03-20.39-22.06l4.25-3.73c6.38,5.01,9.92,7.69,10.65,8.05,1.11.59,2.21.81,3.26.7,1.4-.19,3.48-1.48,6.25-3.84,6.52-5.44,17.49-14.92,32.86-28.39l20.73-18.81,1.73-1.52c3.07-2.7,4.68-4.87,4.79-6.54.11-1.67-1.65-5.42-5.26-11.25-.4-.66-.97-1.62-1.71-2.9l4.26-3.73c8.28,10.24,14.6,17.84,18.92,22.76,4.63,5.28,11.03,12.18,19.23,20.74h0Zm-3.02,7.52l3.58-4.48c8.99,7.85,16.54,14.23,22.62,19.09,4.63,3.7,11.14,8.73,19.52,15.07,6.1,4.58,11.16,8.45,15.17,11.66,7.51,6,12.7,11.73,15.56,17.17,3.97,7.5,5.5,15.37,4.57,23.62-.93,8.25-4.86,16.74-11.83,25.46-7.74,9.68-16.88,16.5-27.42,20.42-10.56,3.94-21.64,4.75-33.22,2.44-9.7-1.92-19.42-6.76-29.18-14.57-.92-.74-4.56-3.81-10.91-9.22-6.37-5.42-9.95-8.45-10.75-9.09-2.81-2.24-10.21-7.83-22.27-16.79l3.55-4.44,2.93,1.57c6.06,3.33,9.86,4.96,11.4,4.88,1.56-.06,3.04-.82,4.45-2.25,2.03-2.2,11.81-14.28,29.37-36.24,12.89-16.13,19.99-25.35,21.3-27.66.93-1.57,1.22-2.99.94-4.28-.29-1.27-2.72-4.53-7.3-9.76l-2.1-2.58h0Zm-25.78,98.48c4.19,4.66,7.92,8.31,11.19,10.93,9.19,7.35,18.31,10.17,27.31,8.48,11.52-2.2,22.55-9.92,33.14-23.16,9.08-11.36,13.31-22.07,12.75-32.15-.43-8.23-5.21-15.97-14.32-23.25-3.83-3.06-8.77-6.41-14.78-10-5.4,5.92-14.85,17.32-28.38,34.25-7.77,9.72-16.75,21.37-26.91,34.92h0Zm118.63,1.52c1.67-1.83,2.94-3.21,3.77-4.15,3.28-3.83,6.31-6.59,9.13-8.3,1.19-.78,2.64-1.1,4.31-.91,1.68.16,4.41,1.13,8.25,2.88l28.5,13.05-30.15,18.71-65.59,39.15-2.55,5.57c19.99,8.58,33.54,14.49,40.6,17.72l40.59,19.44c3.56-5.58,6.15-9.46,7.73-11.73l10.39-14.21-6.29-2.88c-4.6,5.13-8.82,8.82-12.65,11.07-2.61,1.48-4.94,2.17-7,2.07-2.04-.13-5.89-1.49-11.51-4.06l-30.79-14.09c7.07-4.86,25.75-16.34,56.03-34.38,19.14-11.41,32.49-19.22,40.06-23.48l2.68-5.86c-15.61-6.57-28.78-12.31-39.48-17.2-11.03-5.05-23.36-10.98-37.01-17.81-5.07,9.81-10.01,18.73-14.84,26.75l5.81,2.66h0Zm121.27,128.4l1.26-5.52c6.33.29,10.06.2,11.17-.3,1.1-.47,1.8-1.31,2.08-2.53.16-.69.18-1.52.11-2.5-.34-2.28-1.49-9.15-3.47-20.63-6.98-1.7-12.79-3.08-17.44-4.14-3.83-.87-10.21-2.27-19.15-4.21-8.6,11.8-13.05,18.34-13.34,19.59-.27,1.2-.06,2.16.6,2.93.66.74,3.99,2.44,10,5.07l-1.26,5.52c-6.17-1.94-12.14-3.57-17.89-4.88-6.18-1.41-12.55-2.59-19.06-3.54l1.26-5.52c4.71.08,8.05-.29,10.01-1.1,1.33-.53,2.65-1.49,3.96-2.89,2.66-2.7,11.26-13.56,25.76-32.59,9.19-12.04,22.49-29.92,39.86-53.64l5.98,1.36c1.97,12.79,6.58,36.9,13.86,72.29,4.03,19.68,6.56,30.9,7.61,33.72.68,1.95,1.51,3.41,2.42,4.34.92.93,4.09,2.81,9.49,5.63l-1.26,5.52c-8.7-2.52-16.84-4.65-24.4-6.37-7.46-1.7-16.84-3.57-28.18-5.62h0Zm3.15-79.35l-23.07,31.75,14.61,3.33c3.5.8,8.51,1.94,15.05,3.43l-6.59-38.51h0Zm128.1-13.41l-.43,5.65-2.86.26c-6.78.3-10.9,1.01-12.33,2.14-1.42,1.13-2.28,3.45-2.55,6.98l-.21,2.74-2.26,25.61-2.07,29.33-.97,14.93c-.33,4.39-.33,7.15.03,8.31.33,1.15,1.03,2.07,2.03,2.7,1.76,1.1,5.45,2.33,11.02,3.67.62.15,1.55.38,2.79.68l-.43,5.64c-10.41-1.32-19.59-2.27-27.54-2.88-7.52-.57-17.53-1.07-30-1.49l.43-5.65c8.06-.89,12.46-1.45,13.24-1.7,1.21-.35,2.15-.97,2.82-1.78.87-1.12,1.45-3.49,1.78-7.12.85-8.45,2.05-22.89,3.6-43.27l1.65-27.94.17-2.3c.31-4.07-.07-6.76-1.15-8.02-1.09-1.26-4.97-2.72-11.63-4.35-.75-.19-1.83-.48-3.25-.88l.43-5.64c13.08,1.52,22.91,2.53,29.44,3.02,7,.53,16.4.98,28.25,1.35h0Zm-3.06,6.24c8.46,1.01,13.22,1.7,14.25,2.12,1.03.4,1.77,1.2,2.29,2.4.67,1.58,1.33,6.47,1.95,14.65l.37,4.89,2.12,27.88c1.72,22.68,2.54,34.94,2.45,36.76-.09,1.85-.58,3.12-1.42,3.84-.86.75-5.74,2.35-14.61,4.81l.43,5.64c12.69-1.49,24.92-2.68,36.71-3.57,14.4-1.09,32.47-2.2,54.23-3.33,2.41-11.51,4.97-22.11,7.68-31.8l-6.93.52c-4.29,8.53-7.35,13.99-9.11,16.38-1.79,2.37-3.68,4.09-5.74,5.11-1.49.72-4.53,1.26-9.15,1.62l-27.99,2.12-4.84-63.73-1.18-19.7c-.27-3.58.32-5.86,1.79-6.84.88-.51,6.53-1.97,16.91-4.36l-.43-5.64c-12.35,1.46-22.23,2.47-29.65,3.04-7.29.55-17.47,1.06-30.55,1.53l.43,5.64h0Zm205.62,56.57c-6.32-2.72-11.55-6.03-15.63-9.9-6.28-5.93-11.32-13.15-15.16-21.65-6.49-14.38-7.89-28.15-4.17-41.31,4.61-16.2,16.13-28.45,34.57-36.78,15.4-6.96,29.5-8.03,42.29-3.26,12.83,4.79,22.59,14.61,29.32,29.51,7.34,16.24,8.54,31.45,3.6,45.59-4.93,14.16-14.42,24.4-28.42,30.72-4.13,1.87-9.33,3.41-15.65,4.63,17.94-.57,32.14-1.75,42.65-3.56,5.64-.94,10.68-2.38,15.1-4.38,3.1-1.4,6.01-3.06,8.65-4.97,2.65-1.89,5.95-4.79,9.91-8.68l4.71,3.94c-6.46,10.02-11.84,17.4-16.17,22.14-2.51,2.72-5.09,4.65-7.69,5.83-2.58,1.17-5.83,2-9.75,2.48-5.56.67-11.45.74-17.73.22-3.68-.32-11.91-1.55-24.72-3.73-8.37-1.48-15.2-2.02-20.47-1.65-5.28.4-11.92,1.82-19.93,4.26l-3.17-7.02c2.38-.85,4.98-1.64,7.85-2.42h0Zm-8.88-47.6c8.04,17.79,17.02,29.35,26.93,34.59,7.25,3.94,15.38,3.87,24.41-.21,7.9-3.57,12.71-9.05,14.44-16.41,2.17-9.4-.48-22.38-7.95-38.93-7.43-16.45-15.77-27.15-25.04-32.08-7.2-3.85-14.83-3.94-22.93-.28-5.92,2.67-10.38,6.67-13.35,12.01-2.97,5.34-3.9,11.8-2.85,19.4,1.07,7.59,3.19,14.89,6.36,21.91h0Zm54.24-70.68c6.89-3.57,10.95-5.52,12.17-5.84,1.23-.3,2.32-.19,3.32.33,1.46.89,4.08,3.72,7.83,8.51l29.29,37.37c6.35,8.11,12.22,13.47,17.6,16.04,5.38,2.61,11.72,3.14,19.03,1.6,7.32-1.54,15.47-5.83,24.45-12.86,5.32-4.17,9.76-8.78,13.31-13.86,2.71-3.85,4.59-8.12,5.62-12.8,1.07-4.67,1.24-9,.55-12.98-.67-4-2.42-8.49-5.25-13.5-2.12-3.6-7.25-10.7-15.38-21.24-14.18-18.35-21.98-28.81-23.4-31.34-.84-1.5-1.06-2.97-.62-4.41.44-1.44,3.27-5.13,8.51-11.06l-3.49-4.46c-6.44,5.71-11.77,10.22-15.95,13.5-3.55,2.78-9.75,7.31-18.57,13.56l3.49,4.46c1.21-.62,2.13-1.07,2.72-1.37,5.14-2.66,8.31-4.01,9.47-4.1.89-.1,1.71.06,2.46.5,1.25.79,4.42,4.2,9.49,10.24,9.09,10.96,14.6,17.66,16.49,20.07,8.21,10.48,13.54,18.25,15.97,23.31,2.43,5.05,3.06,10.19,1.83,15.41-1.23,5.23-5.09,10.38-11.56,15.45-5.88,4.61-11.34,7.02-16.35,7.25-5.03.21-9.57-1.12-13.68-4.03-3.13-2.17-7.82-7.26-14.07-15.24l-24.26-30.96c-3.38-4.31-5.26-7.13-5.66-8.45-.27-1.02-.08-2.1.56-3.27.95-1.85,4-5.56,9.14-11.16l-3.49-4.46c-8.94,7.67-16.24,13.73-21.91,18.17-5.67,4.44-13.38,10.15-23.13,17.13l3.49,4.46h0Zm96.66-76.74l-4.29-3.7c8.94-9.56,15.8-17.1,20.57-22.64,4.86-5.64,11.15-13.32,18.87-23.07l4.28,3.7c-5.67,9.02-8.65,14.03-8.91,15.02-.36,1.73.83,3.77,3.55,6.11l14.74,13.13,48.39,41.75,18.34-21.25c3.03-3.51,4.79-6.04,5.35-7.6.73-2.17.86-4.73.46-7.67-.44-2.94-2.13-8.97-5.1-18.04l4.54-5.26c4.92,8.78,10.59,18.1,17,27.95-14.62,16.14-26.65,29.68-36.08,40.61-7.72,8.95-15.55,18.42-23.49,28.43l-4.29-3.7c4.56-8.01,6.88-12.58,6.96-13.72.09-1.1-.47-2.34-1.71-3.72-1.21-1.36-10.45-9.47-27.67-24.33l-21.17-18.27-3.71-3.2c-6.21-5.36-10.13-8.36-11.72-9-1.21-.49-2.3-.54-3.31-.09-1.03.43-4.88,3.29-11.6,8.54h0Zm59.64-68.68c5.03-5.91,8.06-9.25,9.07-10,1.03-.74,2.08-1.05,3.2-.95,1.69.27,5.19,1.91,10.47,4.92l41.23,23.56c8.94,5.11,16.39,7.86,22.35,8.21,5.96.39,12.03-1.51,18.23-5.7,6.2-4.19,12.13-11.24,17.79-21.14,3.35-5.87,5.73-11.82,7.1-17.86,1.05-4.59,1.18-9.25.38-13.97-.77-4.72-2.24-8.8-4.39-12.23-2.13-3.45-5.45-6.95-9.96-10.52-3.32-2.53-10.75-7.17-22.26-13.87-20.06-11.64-31.23-18.39-33.49-20.19-1.35-1.07-2.1-2.35-2.24-3.85-.14-1.5,1.1-5.98,3.71-13.46l-4.91-2.81c-3.81,7.72-7.04,13.9-9.68,18.52-2.24,3.91-6.27,10.45-12.09,19.56l4.91,2.81c.89-1.03,1.57-1.79,2.01-2.29,3.75-4.4,6.18-6.85,7.23-7.37.79-.43,1.61-.59,2.47-.46,1.45.26,5.68,2.22,12.65,5.9,12.55,6.72,20.18,10.84,22.85,12.36,11.56,6.61,19.43,11.8,23.59,15.56,4.16,3.76,6.68,8.28,7.51,13.59.83,5.31-.79,11.53-4.88,18.67-3.7,6.48-7.85,10.78-12.41,12.89-4.58,2.09-9.29,2.57-14.19,1.43-3.72-.83-9.98-3.77-18.78-8.8l-34.15-19.52c-4.75-2.72-7.56-4.62-8.43-5.69-.63-.85-.87-1.91-.71-3.24.18-2.07,1.6-6.66,4.25-13.78l-4.91-2.81c-5.38,10.47-9.86,18.84-13.44,25.1-3.58,6.26-8.56,14.45-14.96,24.59l4.91,2.81h0Zm56.79-104.03l-5.44-1.57c3.96-11.81,7.13-21.84,9.51-30.07.92-3.2,2.36-8.46,4.35-15.79.92-3.47,1.81-6.65,2.65-9.55,3.02-10.45,6.73-17.53,11.16-21.27,5.8-4.95,12.57-6.3,20.37-4.04,6.77,1.96,11.77,5.91,14.99,11.83,2.48,4.45,3.8,10.54,3.97,18.25,2.32-6.15,4.89-10.89,7.74-14.24,2.88-3.34,6.38-5.55,10.55-6.66,4.17-1.11,8.64-1,13.39.38,5.86,1.69,10.85,4.94,14.95,9.72,4.13,4.79,6.59,10.9,7.44,18.35.81,7.47-.27,16.4-3.29,26.84-.81,2.8-1.91,6.32-3.3,10.56-1.85,5.46-3.06,9.18-3.65,11.22-1.08,3.73-3.13,11.97-6.16,24.71l-5.46-1.58.92-13.1c-.04-1.18-.26-2.12-.63-2.83-.4-.69-1.01-1.33-1.85-1.9-1.43-.82-5.66-2.29-12.72-4.41-12.35-3.7-23.88-7.12-34.56-10.2-5.94-1.72-15.34-4.21-28.2-7.49-3.83-1-6.47-1.3-7.98-.89-.83.25-1.61.85-2.37,1.77-.31.4-2.46,4.36-6.4,11.95h0Zm51.51-27.01l1.07-3.7c2.33-8.06,2.34-14.41.02-19.03-2.34-4.63-6.81-7.89-13.43-9.8-5.72-1.65-10.51-1.4-14.38.76-3.88,2.18-6.64,6.16-8.32,11.97-.7,2.42-1.31,5.46-1.83,9.15l36.86,10.65h0Zm7.7,2.23l41.56,12.01c1.53-3.13,2.71-6.06,3.51-8.83,1.94-6.72,1.62-12.32-.99-16.79-2.61-4.46-7.71-7.79-15.23-9.97-7.73-2.23-13.63-1.84-17.65,1.23-4.04,3.03-7.41,9.23-10.11,18.57l-1.09,3.78Z" style="fill-rule:evenodd; stroke-width:0px;"/><path d="m1549.52,645.86c-35.01-82.77-85.13-157.11-148.97-220.95-63.84-63.83-138.18-113.95-220.96-148.96-85.71-36.25-176.75-54.63-270.59-54.63s-184.88,18.38-270.59,54.63c-82.78,35.01-157.12,85.13-220.96,148.96-63.84,63.83-113.96,138.17-148.97,220.95-36.25,85.7-54.63,176.74-54.63,270.57s18.38,184.87,54.63,270.57c35.01,82.77,85.13,157.11,148.97,220.95,63.84,63.83,138.18,113.95,220.96,148.96,85.71,36.25,176.75,54.63,270.59,54.63s184.88-18.38,270.59-54.63c82.78-35.01,157.12-85.13,220.96-148.96,63.84-63.83,113.96-138.17,148.97-220.95,36.25-85.7,54.63-176.74,54.63-270.57s-18.38-184.87-54.63-270.57Zm-640.52,922.64c-359.57,0-652.1-292.52-652.1-652.07S549.43,264.36,909,264.36s652.1,292.52,652.1,652.07-292.53,652.07-652.1,652.07Z" style="fill:#3B73B9; stroke-width:0px;"/><path d="m429.05,915.97l-5.24-10.57c-.23-.47-.38-.98-.43-1.5l-1.09-11.76c-.1-1.06-.59-2.04-1.37-2.76l-8.68-7.95c-.39-.36-.71-.78-.94-1.25l-5.24-10.57c-.47-.95-1.29-1.7-2.28-2.08l-10.95-4.26c-.49-.19-.95-.47-1.34-.83l-8.68-7.95c-.79-.72-1.82-1.12-2.88-1.12h-11.74c-.53,0-1.06-.1-1.55-.29l-10.95-4.26c-1-.39-2.1-.39-3.1,0l-10.95,4.26c-.49.19-1.02.29-1.55.29h-11.74c-1.07,0-2.1.4-2.88,1.12l-8.68,7.95c-.39.36-.84.64-1.34.83l-10.95,4.26c-.99.39-1.81,1.13-2.28,2.08l-5.24,10.56c-.23.47-.55.9-.94,1.25l-8.68,7.95c-.78.72-1.27,1.7-1.37,2.76l-1.09,11.76c-.05.52-.19,1.03-.43,1.51l-5.24,10.57c-.47.95-.57,2.04-.28,3.06l3.22,11.36c.14.51.19,1.03.14,1.56l-1.09,11.76c-.1,1.06.2,2.11.84,2.96l7.08,9.42c.32.42.55.9.7,1.4l3.22,11.35c.29,1.02.95,1.9,1.85,2.46l9.99,6.21c.45.28.84.64,1.16,1.06l7.08,9.41c.64.85,1.58,1.43,2.63,1.63l11.54,2.17c.52.1,1.02.29,1.47.57l9.98,6.21c.91.56,1.99.77,3.04.57l11.54-2.17c.52-.1,1.06-.1,1.58,0l11.54,2.17c1.05.2,2.14,0,3.04-.57l9.98-6.21c.45-.28.95-.47,1.47-.57l11.54-2.17c1.05-.2,1.99-.78,2.63-1.63l7.08-9.41c.32-.42.71-.78,1.16-1.06l9.99-6.21c.9-.56,1.56-1.44,1.85-2.46l3.22-11.35c.14-.51.38-.98.7-1.4l7.08-9.42c.64-.85.94-1.9.84-2.96l-1.09-11.76c-.05-.52,0-1.05.14-1.56l3.22-11.36c.29-1.02.19-2.11-.28-3.06Zm-18.08,26.37l-5.31,7.06c-.32.42-.55.9-.7,1.4l-2.41,8.5c-.29,1.02-.95,1.9-1.85,2.46l-7.48,4.65c-.45.28-.84.64-1.16,1.06l-5.29,7.04c-.64.85-1.58,1.43-2.63,1.63l-8.62,1.62c-.52.1-1.02.29-1.47.57l-7.46,4.64c-.91.56-1.99.77-3.04.57l-8.61-1.62c-.52-.1-1.06-.1-1.58,0l-8.61,1.62c-1.05.2-2.14,0-3.04-.57l-7.45-4.64c-.45-.28-.95-.47-1.47-.57l-8.63-1.62c-1.05-.2-1.99-.78-2.63-1.63l-5.29-7.04c-.32-.42-.71-.78-1.16-1.06l-7.48-4.65c-.9-.56-1.56-1.44-1.85-2.46l-2.41-8.5c-.14-.51-.38-.98-.7-1.4l-5.31-7.06c-.64-.85-.94-1.9-.84-2.96l.81-8.82c.05-.52,0-1.05-.14-1.56l-2.42-8.52c-.29-1.02-.19-2.11.28-3.06l3.93-7.92c.23-.47.38-.98.43-1.51l.81-8.81c.1-1.06.59-2.04,1.37-2.76l6.51-5.96c.39-.36.71-.78.94-1.25l3.92-7.9c.47-.95,1.29-1.7,2.28-2.08l8.19-3.19c.49-.19.95-.47,1.34-.83l6.48-5.94c.79-.72,1.82-1.12,2.88-1.12h8.77c.53,0,1.06-.1,1.55-.29l8.17-3.18c1-.39,2.1-.39,3.1,0l8.17,3.18c.49.19,1.02.29,1.55.29h8.77c1.07,0,2.1.4,2.88,1.12l6.48,5.94c.39.36.84.64,1.34.83l8.19,3.19c.99.39,1.81,1.13,2.28,2.08l3.92,7.9c.23.47.55.9.94,1.25l6.51,5.96c.78.72,1.27,1.7,1.37,2.76l.81,8.81c.05.52.19,1.03.43,1.51l3.93,7.93c.47.95.57,2.04.28,3.06l-2.42,8.52c-.14.51-.19,1.03-.14,1.56l.82,8.82c.1,1.06-.2,2.11-.84,2.96Z" style="fill:#3B73B9; stroke-width:0px;"/><path d="m393.6,908.15h-27.41l-8.44-24.72c-1.17-3.43-6.02-3.43-7.19,0l-8.44,24.72h-27.41c-3.72,0-5.22,4.8-2.16,6.92l22.01,15.21-8.39,24.56c-1.18,3.46,2.74,6.43,5.75,4.35l22.23-15.37,22.23,15.37c3.01,2.08,6.94-.89,5.75-4.35l-8.39-24.56,22.01-15.21c3.06-2.12,1.57-6.92-2.16-6.92Z" style="fill:#3B73B9; stroke-width:0px;"/><path d="m1388.95,915.97l5.24-10.57c.23-.47.38-.98.43-1.5l1.09-11.76c.1-1.06.59-2.04,1.37-2.76l8.68-7.95c.39-.36.71-.78.94-1.25l5.24-10.57c.47-.95,1.29-1.7,2.28-2.08l10.95-4.26c.49-.19.95-.47,1.34-.83l8.68-7.95c.79-.72,1.82-1.12,2.88-1.12h11.74c.53,0,1.06-.1,1.55-.29l10.95-4.26c1-.39,2.1-.39,3.1,0l10.95,4.26c.49.19,1.02.29,1.55.29h11.74c1.07,0,2.1.4,2.88,1.12l8.68,7.95c.39.36.84.64,1.34.83l10.95,4.26c.99.39,1.81,1.13,2.28,2.08l5.24,10.56c.23.47.55.9.94,1.25l8.68,7.95c.78.72,1.27,1.7,1.37,2.76l1.09,11.76c.05.52.19,1.03.43,1.51l5.24,10.57c.47.95.57,2.04.28,3.06l-3.22,11.36c-.14.51-.19,1.03-.14,1.56l1.09,11.76c.1,1.06-.2,2.11-.84,2.96l-7.08,9.42c-.32.42-.55.9-.7,1.4l-3.22,11.35c-.29,1.02-.95,1.9-1.85,2.46l-9.99,6.21c-.45.28-.84.64-1.16,1.06l-7.08,9.41c-.64.85-1.58,1.43-2.63,1.63l-11.54,2.17c-.52.1-1.02.29-1.47.57l-9.98,6.21c-.91.56-1.99.77-3.04.57l-11.54-2.17c-.52-.1-1.06-.1-1.58,0l-11.54,2.17c-1.05.2-2.14,0-3.04-.57l-9.98-6.21c-.45-.28-.95-.47-1.47-.57l-11.54-2.17c-1.05-.2-1.99-.78-2.63-1.63l-7.08-9.41c-.32-.42-.71-.78-1.16-1.06l-9.99-6.21c-.9-.56-1.56-1.44-1.85-2.46l-3.22-11.35c-.14-.51-.38-.98-.7-1.4l-7.08-9.42c-.64-.85-.94-1.9-.84-2.96l1.09-11.76c.05-.52,0-1.05-.14-1.56l-3.22-11.36c-.29-1.02-.19-2.11.28-3.06Zm18.08,26.37l5.31,7.06c.32.42.55.9.7,1.4l2.41,8.5c.29,1.02.95,1.9,1.85,2.46l7.48,4.65c.45.28.84.64,1.16,1.06l5.29,7.04c.64.85,1.58,1.43,2.63,1.63l8.62,1.62c.52.1,1.02.29,1.47.57l7.46,4.64c.91.56,1.99.77,3.04.57l8.61-1.62c.52-.1,1.06-.1,1.58,0l8.61,1.62c1.05.2,2.14,0,3.04-.57l7.45-4.64c.45-.28.95-.47,1.47-.57l8.63-1.62c1.05-.2,1.99-.78,2.63-1.63l5.29-7.04c.32-.42.71-.78,1.16-1.06l7.48-4.65c.9-.56,1.56-1.44,1.85-2.46l2.41-8.5c.14-.51.38-.98.7-1.4l5.31-7.06c.64-.85.94-1.9.84-2.96l-.81-8.82c-.05-.52,0-1.05.14-1.56l2.42-8.52c.29-1.02.19-2.11-.28-3.06l-3.93-7.92c-.23-.47-.38-.98-.43-1.51l-.81-8.81c-.1-1.06-.59-2.04-1.37-2.76l-6.51-5.96c-.39-.36-.71-.78-.94-1.25l-3.92-7.9c-.47-.95-1.29-1.7-2.28-2.08l-8.19-3.19c-.49-.19-.95-.47-1.34-.83l-6.48-5.94c-.79-.72-1.82-1.12-2.88-1.12h-8.77c-.53,0-1.06-.1-1.55-.29l-8.17-3.18c-1-.39-2.1-.39-3.1,0l-8.17,3.18c-.49.19-1.02.29-1.55.29h-8.77c-1.07,0-2.1.4-2.88,1.12l-6.48,5.94c-.39.36-.84.64-1.34.83l-8.19,3.19c-.99.39-1.81,1.13-2.28,2.08l-3.92,7.9c-.23.47-.55.9-.94,1.25l-6.51,5.96c-.78.72-1.27,1.7-1.37,2.76l-.81,8.81c-.05.52-.19,1.03-.43,1.51l-3.93,7.93c-.47.95-.57,2.04-.28,3.06l2.42,8.52c.14.51.19,1.03.14,1.56l-.82,8.82c-.1,1.06.2,2.11.84,2.96Z" style="fill:#3B73B9; stroke-width:0px;"/><path d="m1424.4,908.15h27.41l8.44-24.72c1.17-3.43,6.02-3.43,7.19,0l8.44,24.72h27.41c3.72,0,5.22,4.8,2.16,6.92l-22.01,15.21,8.39,24.56c1.18,3.46-2.74,6.43-5.75,4.35l-22.23-15.37-22.23,15.37c-3.01,2.08-6.94-.89-5.75-4.35l8.39-24.56-22.01-15.21c-3.06-2.12-1.57-6.92,2.16-6.92Z" style="fill:#3B73B9; stroke-width:0px;"/><path d="m626.05,928.57c-3.08-6.16-4.64-10.57-4.64-13.28,0-2.23.52-5.05,1.52-8.46l-13.54,12.91c-3.56,4.01-5.34,8.2-5.34,12.61,0,2.52,1.86,7.53,5.57,14.99l4.82,9.68c2.41,4.94,3.64,8.09,3.64,9.46,0,1.67-.67,3.3-2,4.97-2.08-2.08-4.16-4.23-6.16-6.38-2.04-2.15-4.16-4.3-6.31-6.38-6.01-5.64-10.72-8.46-14.13-8.46h-61.07c-1.04,0-2.04-.22-3.01-.67-.96-.44-1.85-.96-2.67-1.63-.78-.67-1.41-1.41-1.89-2.19-.48-.82-.7-1.63-.7-2.45,0-.45,1.11-2.08,3.3-4.9l7.64-8.16c1.15,2.34,2.23,4.19,3.15,5.64.93,1.48,2,2.6,3.19,3.38,1.22.81,2.63,1.33,4.3,1.63,1.67.3,3.82.45,6.53.45h15.51c1.97,0,3.56-.07,4.82-.26,1.3-.19,2.45-.52,3.49-1.04,1.04-.52,2.11-1.22,3.15-2.19,1.04-.93,2.34-2.23,3.86-3.82l7.16-7.38h-25.41c-6.64,0-11.24-2.89-13.76-8.64l-4.79-11.17-60.88,59.65h108.41c1.89,0,4.01.74,6.42,2.26,2.38,1.52,4.68,3.45,6.9,5.71,2.19,2.3,4.12,4.75,5.79,7.34,1.67,2.6,2.74,4.97,3.26,7.16l16.88-15.88c1.97-1.85,3.56-3.45,4.75-4.75,1.19-1.33,2.08-2.56,2.67-3.71.56-1.15.97-2.3,1.15-3.49.19-1.15.26-2.56.26-4.23,0-2.97-1.56-7.64-4.68-14.02l-7.16-14.32Z" style="fill-rule:evenodd; stroke-width:0px;"/><path d="m572.96,992.38c-1-1.26-2-2.56-2.93-3.9-.93-1.33-1.45-2.67-1.52-3.97-8.5,6.86-12.76,11.17-12.76,12.91,0,2.19,1.6,3.93,4.79,5.23,4.53,1.86,8.16,4.64,10.91,8.35,3.78-5.79,5.68-9.61,5.68-11.5,0-1.08-.45-2.23-1.3-3.41-.89-1.22-1.82-2.45-2.86-3.71Z" style="fill-rule:evenodd; stroke-width:0px;"/><path d="m808.77,884.46c4.53,1.86,8.16,4.64,10.91,8.35,3.78-5.79,5.68-9.61,5.68-11.5,0-1.08-.45-2.23-1.3-3.41-.89-1.22-1.82-2.45-2.86-3.71-1-1.26-2-2.56-2.93-3.9-.93-1.33-1.45-2.67-1.52-3.97-8.5,6.86-12.76,11.17-12.76,12.91,0,2.19,1.6,3.93,4.79,5.23Z" style="fill-rule:evenodd; stroke-width:0px;"/><path d="m1269.71,871.78c4.53,1.85,8.16,4.64,10.91,8.35,3.78-5.79,5.68-9.61,5.68-11.5,0-1.08-.45-2.23-1.3-3.41-.89-1.22-1.82-2.45-2.86-3.71-1-1.26-2-2.56-2.93-3.9-.93-1.34-1.45-2.67-1.52-3.97-8.5,6.86-12.76,11.17-12.76,12.91,0,2.19,1.6,3.93,4.79,5.23Z" style="fill-rule:evenodd; stroke-width:0px;"/><path d="m783.62,884.46c4.53,1.86,8.16,4.64,10.91,8.35,3.78-5.79,5.68-9.61,5.68-11.5,0-1.08-.45-2.23-1.3-3.41-.89-1.22-1.82-2.45-2.86-3.71-1-1.26-2-2.56-2.93-3.9-.93-1.33-1.45-2.67-1.52-3.97-8.5,6.86-12.77,11.17-12.77,12.91,0,2.19,1.6,3.93,4.79,5.23Z" style="fill-rule:evenodd; stroke-width:0px;"/><path d="m1157.22,886.58c3.78-5.79,5.68-9.61,5.68-11.5,0-1.08-.45-2.23-1.3-3.41-.89-1.22-1.82-2.45-2.86-3.71-1-1.26-2-2.56-2.93-3.9-.93-1.34-1.45-2.67-1.52-3.97-8.5,6.86-12.76,11.17-12.76,12.91,0,2.19,1.6,3.93,4.79,5.23,4.53,1.85,8.16,4.64,10.91,8.35Z" style="fill-rule:evenodd; stroke-width:0px;"/><path d="m1116.6,960.29c-3.97-1.3-7.27-2.75-9.94-4.34-2.63-1.6-4.71-3.45-6.31-5.57-1.59-2.08-2.71-4.53-3.38-7.27-.63-2.75-.96-5.94-.96-9.57v-104.17c-10.31,12.61-18.25,18.92-23.82,18.92,8.31,14.73,12.46,24.45,12.46,29.09v68.19c0,3.93.45,7.23,1.34,9.91.93,2.71,2.45,4.86,4.56,6.49,2.11,1.63,4.97,2.82,8.5,3.49,3.52.7,7.94,1.04,13.21,1.04,9.09,0,14.36-.93,15.8-2.82-2.45-.82-4.64-1.45-6.57-1.97-1.89-.52-3.52-.96-4.9-1.41Z" style="fill-rule:evenodd; stroke-width:0px;"/><path d="m897.29,955.95c-.82-1.11-1.41-2.56-1.74-4.38-.33-1.78-.48-4.15-.48-7.05v-115.15c-10.98,12.61-18.92,18.92-23.82,18.92,8.31,14.76,12.46,24.45,12.46,29.12v66.18c0,.78-.18,1.56-.56,2.34-.37.74-.85,1.49-1.48,2.12-.59.67-1.3,1.19-2,1.59-.74.41-1.45.59-2.08.59h-23c2.04-2.74,3.04-6.46,3.04-11.13,0-3.19-1.56-7.87-4.64-14.02l-10.09-20.29c-3.08-6.16-4.64-10.61-4.64-13.28,0-2.26.52-5.08,1.52-8.5l-38.14,38.06c-4.08,4.08-6.12,7.6-6.12,10.57,0,4.12,2.08,8.2,6.2,12.17l14.32,13.84c4.41,4.23,6.64,7.2,6.64,8.87,0,2.04-1.41,3.08-4.23,3.08-.96,0-4.53-3.23-10.76-9.68-5.41-5.6-10.39-8.77-14.91-9.51v-.17h-21.63c-.78,0-1.82-.48-3.12-1.48-1.33-.97-2.6-2.15-3.82-3.53-1.23-1.37-2.34-2.78-3.27-4.19-.93-1.41-1.41-2.52-1.41-3.3v-108.36c-10.98,12.61-18.92,18.92-23.82,18.92,8.31,14.76,12.47,24.45,12.47,29.12v66.18c0,.78-.18,1.56-.56,2.34-.33.74-.85,1.49-1.45,2.12-.63.67-1.3,1.19-2,1.59-.74.41-1.41.59-2.08.59h-13.54c.07-.3.11-1,.11-2.19,0-3.71-1.93-9.46-5.79-17.33l-7.16-14.39c-3.82-7.61-5.75-13.21-5.75-16.77,0-2.49.3-4.86.89-7.2l-38.7,38.95c-4.04,4.04-6.05,7.68-6.05,10.87,0,1.22.04,2.26.15,3.12.11.82.41,1.63.82,2.45.44.78,1.07,1.67,1.89,2.6.82.97,2,2.15,3.49,3.6l16.29,16.1c3.3,3.26,4.97,5.64,4.97,7.16s-1.45,3.71-4.34,6.53l-18.85,18.29c-2.38,2.34-4.67,4.34-6.94,6.05-2.23,1.71-4.38,3.15-6.42,4.34-2.08,1.19-4.08,2.19-6.01,2.93-1.97.78-3.86,1.41-5.75,1.93,1.89.7,4.12,1.08,6.72,1.08,10.35,0,18.85-3.26,25.49-9.79l42.93-42.07h70.58c1.95.02,4.21.8,6.77,2.37,2.6,1.6,5.12,3.56,7.57,5.9,2.41,2.3,4.53,4.75,6.34,7.31,1.82,2.56,2.93,4.86,3.38,6.9l23.34-22.48h55.02c5.31,0,9.72-2,13.21-5.97-2.41-.67-4.38-1.3-5.9-1.96-1.52-.67-2.71-1.52-3.56-2.6Zm-190.1,9.65c0-.15.04-.33.07-.56.04-.22.04-.45.04-.67-.07-1.08-.3-2.26-.63-3.53-.37-1.26-1.11-2.97-2.26-5.05l-7.9-14.8c-1.71-3.12-2.56-5.75-2.56-7.83,0-2.93,2.45-6.49,7.35-10.68-.07.33-.15.93-.18,1.67-.04.78-.04,1.75-.04,2.9,0,1.3.52,2.86,1.52,4.67l9.2,17.33c1.45,2.74,2.19,5.08,2.19,6.93,0,2.34-2.26,5.53-6.79,9.61Zm128.74-9.35c0-.15.04-.33.07-.52.04-.22.04-.45.04-.67-.07-1.07-.3-2.26-.67-3.52-.33-1.3-1.11-2.97-2.26-5.08l-8.05-14.8c-1.74-3.12-2.6-5.71-2.6-7.83,0-2.89,2.6-6.46,7.79-10.65-.07.33-.11.93-.15,1.67-.04.78-.07,1.74-.07,2.89,0,1.3.52,2.86,1.52,4.68l9.02,17.29c1.45,2.78,2.15,5.08,2.15,6.97,0,2.34-2.27,5.53-6.79,9.57Z" style="fill-rule:evenodd; stroke-width:0px;"/><path d="m1320.24,950.24h-9.13c-2.63,0-5.23-.59-7.79-1.74-2.6-1.15-4.93-2.74-6.97-4.71-2.08-2-3.75-4.34-5.05-7.08-1.26-2.71-1.89-5.6-1.89-8.72,0-2.56.52-5.19,1.52-7.94,1.04-2.74,2.74-5.57,5.16-8.5l9.65-11.61c2.63-3.12,3.93-5.71,3.93-7.83v-28.23l-24.93,24.71h10.76c1.74,0,2.6.96,2.6,2.93,0,1.3-3.64,5.34-10.87,12.17l-10.98,10.42c-9.76,9.24-14.65,18.22-14.65,26.9,0,4.56.85,7.64,2.6,9.24h-22.93l-7.83-16.99c-2.52-5.45-4.71-8.16-6.6-8.16h-45.41c-4.38,0-7.83-2.52-10.28-7.6l-13.69-27.34-14.13,14.14c3.19,1.6,5.49,3.75,6.97,6.49l8.68,17.25c4.41,8.87,9.76,13.32,16.14,13.32h41.66l4.45,8.9h-49.16c-9.61,0-19.14-3.45-28.53-10.31v26.56h193.07c-8.05-5.05-13.51-10.46-16.36-16.25Z" style="fill-rule:evenodd; stroke-width:0px;"/><path d="m956.81,960.29c-3.97-1.3-7.27-2.75-9.94-4.34-2.63-1.6-4.71-3.45-6.31-5.57-1.59-2.08-2.71-4.53-3.38-7.27-.63-2.75-.97-5.94-.97-9.57v-104.17c-10.31,12.61-18.25,18.92-23.82,18.92,8.31,14.73,12.47,24.45,12.47,29.09v68.19c0,3.93.44,7.23,1.34,9.91.93,2.71,2.45,4.86,4.56,6.49,2.11,1.63,4.97,2.82,8.5,3.49,3.52.7,7.94,1.04,13.21,1.04,9.09,0,14.36-.93,15.8-2.82-2.45-.82-4.64-1.45-6.57-1.97-1.89-.52-3.52-.96-4.9-1.41Z" style="fill-rule:evenodd; stroke-width:0px;"/><path d="m1034.9,949.05c-1.11-.82-2.08-1.82-2.93-3.01-.85-1.19-1.56-2.49-2.08-3.86-.48-1.37-.74-2.6-.74-3.67,0-1.52.52-2.89,1.52-4.12,1-1.26,2.6-2.23,4.79-2.93l11.5-3.71c1.86-.59,3.34-1.08,4.38-1.52,1.04-.44,1.82-.89,2.34-1.41.48-.52.82-1.08.93-1.74.11-.63.15-1.52.15-2.6v-24.34c-1.82,2.11-3.6,4.19-5.42,6.31-1.82,2.08-3.67,4.12-5.53,6.01-1.89,1.93-3.9,3.75-6.01,5.46-2.15,1.67-4.45,3.19-6.9,4.49-12.43,6.6-18.66,13.69-18.66,21.3,0,1.89.33,3.86,1.04,5.97.67,2.11,1.45,4.04,2.26,5.82.85,1.78,1.59,3.27,2.3,4.49.67,1.26,1.04,1.93,1.04,2.08l-8.87,8.42h44.26c4.27,0,6.94-2.19,8.01-6.6l2.26-9.65h-26.42c-1.08,0-2.15-.41-3.23-1.19Z" style="fill-rule:evenodd; stroke-width:0px;"/></svg>